<?xml version="1.0"?><svg version="1.2" baseProfile="tiny-ps" viewBox="0 0 208 208" xmlns="http://www.w3.org/2000/svg" xmlns:xlink="http://www.w3.org/1999/xlink"><title>TerapiaFinanciera</title><g><g fill="#fdfefe" transform="matrix(.1 0 0 -.1 0 208)"><path d="M0 1040V0h2080v2080H0V1040z"/></g><g fill="#b3c1cc" transform="matrix(.1 0 0 -.1 0 208)"><path d="M850 2063c-270-48-522-213-679-446-49-73-117-222-141-312l-22-80-5-145-5-145 20-95c37-178 114-339 229-475l59-70 84-68 84-67 101-50 100-50 100-27L875 7h160l160-1 98 27 97 26 93 45 92 46 87 65 88 66 57 67c118 139 191 277 234 440l21 77 5 135 5 135-22 105c-75 366-314 647-660 777l-88 33-93 15-94 15-90-1-90-1-85-15zm90-643v-90h180v-150H940V841l11-24c6-14 22-30 34-37l23-12 38 5c22 3 48 7 58 9l19 3 24-60c12-32 23-63 23-67s-15-15-32-25l-33-17h-95l-95-1-56 28-56 27-26 38-26 37-10 45-11 45v345H620v150h110v180h210v-90z"/></g><g fill="#de5221" transform="matrix(.1 0 0 -.1 0 208)"><path d="M849 2054c-326-59-609-278-751-581l-39-84-25-95-24-95-6-92-7-92 12-90c16-124 45-224 97-331l43-92 60-79C370 209 596 71 859 26l95-16h175l98 19c154 30 258 74 393 164l75 51 80 82 80 82 54 87 54 87 34 88c18 49 40 122 49 162l17 73v260l-18 79c-37 174-113 330-223 462l-58 69-83 67-84 67-79 41c-100 52-200 87-307 105l-84 15-101-1-101-1-76-14zm91-624v-89l93-3 92-3v-160l-90-5-90-5-3-152-3-152 15-35 14-34 35-11 35-12 41 14 41 15 4-7c3-4 16-37 30-73l25-67-12-9c-7-5-26-14-44-21l-32-13-73-1-73-2-50 15-50 14-46 46-46 46-11 46-12 47v350l-57 3-58 3v160l58 3 57 3v179h210v-90z"/></g><g fill="#467b9e" transform="matrix(.1 0 0 -.1 0 208)"><path d="M849 2054c-326-59-609-278-751-581l-39-84-25-95-24-95-6-92-7-92 12-90c16-124 45-224 97-331l43-92 60-79C370 209 596 71 859 26l95-16h175l98 19c154 30 258 74 393 164l75 51 80 82 80 82 54 87 54 87 34 88c18 49 40 122 49 162l17 73v260l-18 79c-37 174-113 330-223 462l-58 69-83 67-84 67-79 41c-100 52-200 87-307 105l-84 15-101-1-101-1-76-14zm634-546 25-17-18-48c-10-26-23-61-29-77l-11-28-16 13-15 13h-51l-50 1-24-28-24-28v-78l93-3 92-3v-160l-92-3-93-3V610l-122-2c-168-3-205-1-258 13l-45 13-46 46-46 46-11 46-12 47v350l-57 3-58 3v160l58 3 57 3v179h210v-180h128l13 37 12 36 42 42 42 42 44 16 44 17 96-3 96-3 26-16zM940 962V859l14-33 14-34 36-12 36-11 10 6 10 6v277l-60 4-60 3V962z"/></g><g fill="#3d5469" transform="matrix(.1 0 0 -.1 0 208)"><path d="M875 1935c-148-27-267-80-392-174l-79-60-54-64c-104-125-175-268-204-409l-16-77V931l15-68c73-347 324-613 664-705l76-21 135-1h135l60 13c33 7 98 27 144 44l84 30 87 58 88 59 76 81 76 81 41 69c52 87 93 193 113 291l16 77v196l-19 90c-22 106-56 194-113 290l-42 70-95 96-96 96-72 42c-40 24-106 56-147 72l-74 29-87 15-88 15-81-1c-44 0-112-7-151-14zm608-427 25-17-18-48c-10-26-23-61-29-77l-11-28-16 13-15 13h-51l-50 1-24-28-24-28v-78l93-3 92-3v-160l-92-3-93-3V613l-157-6-158-7-40 11c-22 6-59 22-82 35l-42 25-28 47-28 47-3 203-3 202H610v170h120v180h209l3-87 3-88 62-3 61-3 12 37 13 37 42 42 42 42 44 16 44 17 96-3 96-3 26-16zM942 946l4-119 28-23 27-24h59v278l-61 4-61 3 4-119z"/></g><g fill="#222e3e" transform="matrix(.1 0 0 -.1 0 208)"><path d="M860 1925c-312-66-557-274-670-566l-30-78-16-93-16-93 6-95 6-95 20-83 20-83 34-74c127-275 381-467 681-516l76-12 107 6 107 6 76 20c96 25 191 68 277 125l67 44 70 71 70 71 48 72 47 72 30 78c17 43 38 109 47 146l16 67v240l-16 70c-8 39-29 106-46 150l-31 80-49 75c-120 182-296 313-508 376l-88 26-135 4-135 3-65-14zm600-407c19-6 38-14 43-17l7-7-25-69c-15-38-29-73-31-77l-5-8-21 11-20 11h-91l-19-20-20-20-5-46-6-46h193v-169l-91-3-91-3 2-217 1-216-9-6c-6-3-92-7-193-8l-184-3-42 22-41 22-29 36c-17 20-36 52-43 73l-12 37-5 185-5 185H615v180h100l5 90 5 90h220l3-90 3-90 60 3 59 4 16 36c29 71 100 124 187 142l42 9 55-5c30-3 71-10 90-16zM950 946V832l18-21 17-22 38-6 37-6v283H950V946z"/></g></g></svg>